PathFileType	4	(X/Y/Z)	C:\Users\WrightLab\Desktop\Jo\P5V15.trc
DataRate	CameraRate	NumFrames	NumMarkers	Units	OrigDataRate	OrigDataStartFrame	OrigNumFrames
100.00	100.00	       64	19	mm	100.00	1	       805
Frame#	Time	Headset_Front			Headset_Back			Headset_Left			Headset_Right			Left_Shoulder			Right_Shoulder			Sternum			C7			Left Elbow			Right Elbow			Left Wrist			Right Wrist			Left ASIS			Right ASIS			S2			Left Knee			Right Knee			Left Ankle			Right Ankle			
		X1	Y1	Z1	X2	Y2	Z2	X3	Y3	Z3	X4	Y4	Z4	X5	Y5	Z5	X6	Y6	Z6	X7	Y7	Z7	X8	Y8	Z8	X9	Y9	Z9	X10	Y10	Z10	X11	Y11	Z11	X12	Y12	Z12	X13	Y13	Z13	X14	Y14	Z14	X15	Y15	Z15	X16	Y16	Z16	X17	Y17	Z17	X18	Y18	Z18	X19	Y19	Z19	

1	0.000																																		-51.00641	1053.46545	1532.65747													10.79927	531.69855	1934.83923							
2	0.010																																		-53.87947	1052.56799	1527.70166													11.10742	532.12415	1934.37195							
3	0.020																																		-55.25314	1052.12817	1525.53845													11.83367	531.21777	1937.00464							
4	0.030																																		-58.21489	1051.13135	1521.90857													12.32954	531.68829	1936.26172							
5	0.040																																		-60.41038	1049.64075	1517.74072													13.10145	531.14307	1941.01184							
6	0.050																																		-62.83355	1049.12231	1514.03442													13.34627	531.87860	1940.80737							
7	0.060																																		-64.84934	1049.22961	1509.59912													13.40256	532.04126	1940.71777							
8	0.070																																		-67.56427	1048.29773	1505.30322													13.45500	532.14941	1940.63647							
9	0.080																																		-68.99640	1047.89148	1503.03210													13.38770	532.28400	1942.03271							
10	0.090																																		-71.59563	1047.12512	1499.57288													13.06815	532.22241	1942.50098							
11	0.100																																		-73.71469	1045.94434	1496.12366													12.57669	531.96722	1943.22864							
12	0.110																																		-76.35989	1045.46069	1493.09644													11.41923	532.86041	1941.15271							
13	0.120																																		-78.10791	1045.40100	1490.15894													10.23280	532.28516	1942.90601							
14	0.130																																		-80.23820	1045.07336	1487.23108													9.11348	532.52209	1942.52661							
15	0.140																																		-82.78802	1043.99194	1484.36719													7.84561	533.39514	1941.36975							
16	0.150																																		-84.37398	1043.43921	1482.35376													6.55982	533.56366	1941.78223							
17	0.160																																		-86.20788	1042.51746	1478.74048													5.02434	532.93512	1944.04260							
18	0.170																																		-88.27384	1042.81311	1476.31580													3.50125	534.41736	1941.71716							
19	0.180																																		-90.19717	1041.45276	1473.71057													2.50753	534.05243	1943.17651							
20	0.190																																		-91.41589	1040.73706	1471.76880													0.56849	535.29419	1941.46655							
21	0.200																																		-93.01739	1040.84924	1469.57336													-1.06789	535.94653	1940.16382							
22	0.210																																		-94.46107	1040.89343	1466.41711													-2.48165	536.82220	1939.42505							
23	0.220																																		-95.55683	1040.78479	1465.40906													-3.95967	537.05206	1937.20715							
24	0.230																																		-97.31010	1040.47827	1463.85962													-5.74240	536.80371	1938.83716							
25	0.240																																		-98.68420	1040.14941	1462.00391													-7.58903	537.81921	1936.52258							
26	0.250																																		-99.91766	1039.87061	1460.88562													-9.07498	538.00684	1934.31995							
27	0.260																																		-100.76497	1040.75574	1459.51965													-11.05274	537.32465	1935.21814							
28	0.270																																		-102.14178	1040.23755	1457.40759													-13.01781	537.48712	1931.72205							
29	0.280																																		-103.29461	1039.93286	1456.10339													-14.86379	538.12311	1929.42798							
30	0.290																																		-104.72015	1039.75061	1454.47363													-16.75623	536.86328	1929.31543							
31	0.300																																		-105.92994	1040.08972	1453.57495													-18.78349	536.12823	1927.45227							
32	0.310																																		-106.44603	1039.85425	1452.48230													-20.35462	535.95038	1924.91064							
33	0.320																																		-107.83809	1039.67297	1450.97363													-22.99871	536.30524	1920.89404							
34	0.330																												-21.05808	1215.50623	1626.55957				-109.54515	1040.43042	1450.34729													-24.73530	535.54950	1920.68811							
35	0.340																												-22.98127	1215.82983	1625.51855				-110.31806	1040.39258	1449.73120													-26.92350	536.06403	1917.30652							
36	0.350																												-24.47254	1216.19592	1624.88025				-111.78941	1040.25037	1448.35791													-29.60651	535.45667	1914.88550							
37	0.360																												-25.85797	1216.31836	1624.35413				-112.93138	1040.75891	1447.48535													-31.22251	534.86707	1912.37170							
38	0.370																												-27.78068	1216.72961	1623.81335				-113.83318	1040.65881	1446.56311													-33.29948	534.28741	1910.57813							
39	0.380																												-29.25589	1216.95715	1622.82471				-114.94627	1041.14270	1446.39600													-35.16408	533.76001	1908.47974							
40	0.390																												-30.27158	1216.93408	1622.52295				-116.15247	1041.02429	1445.81812													-37.19492	534.35010	1903.59888							
41	0.400																												-31.70832	1217.04724	1622.42517				-117.13983	1041.67444	1445.21790													-38.80243	533.75903	1903.19800							
42	0.410																												-33.39379	1217.19238	1622.34363				-117.71657	1041.79797	1444.87927													-41.04956	533.56445	1900.89221							
43	0.420																												-34.36895	1217.28308	1622.09424				-118.95062	1042.06824	1444.48523													-42.86671	533.97137	1898.22449							
44	0.430																												-35.34773	1217.60071	1622.33496				-120.01546	1042.52185	1444.60669													-44.83142	533.89856	1897.09302							
45	0.440																												-36.38195	1217.52844	1622.34961				-121.34071	1043.09265	1444.08228													-47.09764	534.10846	1895.07178							
46	0.450																												-37.77638	1217.58704	1622.39868				-122.02342	1043.06213	1444.09192													-48.98771	534.42596	1892.24670							
47	0.460																												-39.04941	1218.00232	1622.19580				-122.52217	1043.11963	1444.26282													-51.39635	535.04553	1890.03162							
48	0.470																												-39.96972	1218.43274	1622.25781				-123.42549	1043.37866	1444.51599													-53.24076	534.58582	1887.85156							
49	0.480																												-41.11018	1218.42102	1622.56970				-123.94838	1043.34619	1444.71887													-55.19764	535.52258	1886.26501							
50	0.490																												-42.29210	1218.46216	1622.52319				-124.86720	1043.38452	1444.80005													-57.09070	535.18665	1884.15161							
51	0.500																												-43.42039	1218.66162	1622.73169				-125.68913	1043.37537	1444.47424													-58.84108	535.42505	1883.04102							
52	0.510																												-44.14349	1218.70166	1622.57129				-126.53647	1043.08752	1444.25208													-60.05488	535.27325	1884.01331							
53	0.520																												-44.87543	1218.75757	1623.58313				-127.44504	1043.02063	1444.14050													-61.30812	535.34778	1880.98621							
54	0.530																												-45.73954	1218.57385	1623.66138				-127.96900	1042.93896	1444.29419													-62.84165	535.78284	1879.56433							
55	0.540																												-46.67461	1218.66284	1622.98315				-128.67393	1042.54260	1444.08215													-64.18407	535.72552	1877.65100							
56	0.550																												-47.70996	1218.48596	1623.28870				-129.27426	1042.25464	1444.06006													-65.19508	536.06451	1877.34009							
57	0.560																												-48.57583	1218.58691	1622.72449				-129.96727	1042.13110	1443.93445													-66.04755	536.36011	1877.11414							
58	0.570																												-49.57799	1218.80164	1622.20959				-130.37422	1041.87915	1444.11707													-67.20512	537.20392	1875.82617							
59	0.580																												-50.74022	1219.00867	1622.35925				-130.89764	1041.82861	1444.12732													-68.69682	537.35022	1874.40808							
60	0.590																												-52.07417	1219.38257	1621.60852				-131.19041	1041.63208	1444.17017													-70.13587	538.28101	1872.77722							
61	0.600																												-52.96526	1219.32117	1621.62012				-131.45586	1041.49536	1444.11914													-71.24658	538.34369	1872.38977							
62	0.610																												-53.96033	1219.52173	1621.84241				-132.06673	1041.18799	1443.61633													-72.45908	538.50574	1872.14185							
63	0.620																												-54.76295	1219.78650	1621.29077				-133.15881	1040.43323	1442.96838													-74.11031	539.21918	1872.08228							
64	0.630																												-53.27789	1219.50916	1620.49280				-133.47646	1039.59387	1442.44519													-75.37180	538.76678	1871.03479							
